<?xml version="1.0" standalone="no"?>
<!DOCTYPE svg PUBLIC "-//W3C//DTD SVG 20010904//EN"
 "http://www.w3.org/TR/2001/REC-SVG-20010904/DTD/svg10.dtd">
<svg version="1.0" xmlns="http://www.w3.org/2000/svg"
 width="1024.000000pt" height="1024.000000pt" viewBox="0 0 1024.000000 1024.000000"
 preserveAspectRatio="xMidYMid meet">

<g transform="translate(0.000000,1024.000000) scale(0.100000,-0.100000)"
fill="#000000" stroke="none">
<path d="M4865 8424 c-236 -19 -518 -71 -730 -136 -403 -123 -809 -343 -1110
-602 l-59 -51 -246 -1 c-228 0 -248 -2 -285 -21 -46 -24 -75 -53 -101 -103
-17 -31 -19 -59 -19 -235 0 -198 0 -201 28 -256 l27 -56 -66 -114 c-330 -564
-484 -1210 -445 -1867 6 -108 20 -255 31 -327 65 -421 223 -844 460 -1225 l46
-76 -33 -44 c-47 -64 -55 -119 -51 -316 3 -170 3 -171 33 -220 19 -30 49 -60
79 -79 l49 -30 255 -2 255 -3 54 -42 c267 -212 618 -412 915 -522 695 -258
1485 -273 2184 -41 380 126 716 308 1012 548 l73 59 257 2 c243 1 259 2 297
23 49 26 76 55 104 110 19 38 21 59 21 228 0 199 -5 225 -56 292 l-25 33 61
102 c236 399 386 807 449 1228 52 340 41 800 -25 1130 -74 371 -216 739 -406
1052 l-58 98 27 42 c28 41 28 43 31 237 4 213 -1 244 -47 308 -55 76 -83 83
-363 87 l-245 3 -104 84 c-309 251 -703 456 -1099 574 -298 88 -551 125 -890
130 -129 1 -257 1 -285 -1z m550 -220 c571 -55 1103 -263 1553 -608 146 -112
133 -81 135 -323 l2 -210 30 -49 c19 -30 49 -60 79 -79 l49 -30 188 -3 188 -4
71 -119 c238 -398 386 -837 434 -1284 21 -194 14 -589 -13 -770 -69 -455 -245
-909 -493 -1277 l-39 -58 -151 0 c-178 0 -218 -9 -274 -65 -64 -64 -74 -108
-74 -316 l0 -177 -57 -49 c-415 -357 -1021 -610 -1613 -674 -147 -16 -504 -16
-640 0 -614 71 -1170 299 -1618 663 l-53 43 -2 200 c-2 223 -8 244 -79 312
-54 52 -101 63 -272 63 l-151 1 -24 37 c-134 209 -226 380 -298 555 -174 424
-243 804 -230 1272 15 576 161 1073 455 1552 l57 93 166 0 c199 0 248 11 307
71 64 63 74 106 69 305 -2 93 -6 179 -8 190 -8 44 328 290 561 413 341 179
739 295 1130 330 138 12 464 10 615 -5z m-2784 -873 c29 -23 31 -81 4 -111
-39 -43 -125 -9 -125 50 0 66 71 102 121 61z m249 -1 c43 -43 11 -130 -47
-130 -34 0 -73 36 -73 67 0 27 17 64 34 75 21 14 66 8 86 -12z m4547 -2 c30
-28 30 -69 0 -104 -45 -52 -121 -21 -121 50 0 69 71 101 121 54z m251 2 c45
-42 15 -130 -45 -130 -38 0 -73 36 -73 77 0 65 71 96 118 53z m-5047 -4239
c42 -34 22 -119 -32 -136 -22 -7 -74 18 -83 40 -12 33 -5 66 19 90 29 30 64
32 96 6z m234 13 c8 -4 22 -19 31 -35 24 -48 1 -97 -54 -114 -29 -9 -82 42
-82 80 0 49 57 87 105 69z m4560 -19 c40 -39 32 -96 -17 -121 -78 -40 -142 79
-71 134 26 19 62 14 88 -13z m249 4 c67 -53 2 -163 -73 -124 -47 24 -56 83
-19 122 27 29 57 29 92 2z"/>
<path d="M4943 7059 c-841 -64 -1563 -708 -1722 -1533 -93 -479 -12 -961 227
-1364 94 -157 163 -245 316 -398 109 -109 169 -159 266 -224 510 -340 1156
-425 1720 -225 119 42 326 147 435 220 522 350 855 964 855 1575 0 71 -5 130
-12 145 -31 68 -143 73 -184 9 -13 -19 -17 -43 -16 -88 4 -90 -15 -285 -39
-400 -81 -403 -316 -769 -659 -1026 -112 -83 -350 -205 -490 -249 -198 -64
-369 -86 -594 -78 -231 8 -400 44 -601 128 -541 224 -926 712 -1025 1294 -20
115 -22 154 -17 335 4 157 10 228 27 305 52 239 147 460 278 645 82 116 269
305 377 381 227 160 453 255 725 306 132 24 465 24 600 -1 345 -62 640 -211
883 -445 128 -123 232 -258 318 -411 33 -60 69 -116 79 -125 11 -10 39 -20 64
-22 42 -5 48 -3 82 31 33 33 36 40 31 77 -7 52 -115 242 -209 367 -338 450
-831 723 -1393 771 -132 12 -172 12 -322 0z"/>
<path d="M4930 6195 c-344 -54 -645 -287 -801 -620 -191 -408 -93 -902 243
-1221 158 -149 334 -238 556 -280 118 -22 334 -15 447 16 535 144 880 660 801
1196 -47 320 -222 586 -501 761 -214 135 -484 189 -745 148z m292 -506 c198
-41 381 -216 432 -416 20 -77 20 -202 1 -278 -53 -200 -232 -366 -445 -411
-237 -50 -493 76 -603 296 -114 227 -73 477 107 655 133 131 330 191 508 154z"/>
</g>
</svg>
