<svg width="400" height="300" viewBox="0 0 400 300" fill="none" xmlns="http://www.w3.org/2000/svg">
  <rect width="400" height="300" fill="#1a1a2e"/>

  <!-- Main conversation bubble - central node -->
  <g id="central-node">
    <rect x="160" y="120" width="80" height="60" rx="8" fill="#2d4059" stroke="#00DBD8" stroke-width="2.5"/>
    <circle cx="175" cy="140" r="2.5" fill="#00DBD8"/>
    <circle cx="185" cy="140" r="2.5" fill="#00DBD8"/>
    <circle cx="195" cy="140" r="2.5" fill="#00DBD8"/>
    <line x1="170" y1="155" x2="230" y2="155" stroke="#13ADC7" stroke-width="1.5" opacity="0.4"/>
    <line x1="170" y1="165" x2="220" y2="165" stroke="#6978D1" stroke-width="1.5" opacity="0.4"/>
  </g>

  <!-- Branch connectors -->
  <g id="connectors" stroke-linecap="round">
    <!-- Top left branch -->
    <path d="M 160 135 Q 120 120 90 100" stroke="url(#gradient1)" stroke-width="2" fill="none"/>

    <!-- Top right branch -->
    <path d="M 240 135 Q 280 120 310 100" stroke="url(#gradient2)" stroke-width="2" fill="none"/>

    <!-- Bottom left branch -->
    <path d="M 160 165 Q 120 180 90 200" stroke="url(#gradient3)" stroke-width="2" fill="none"/>

    <!-- Bottom right branch -->
    <path d="M 240 165 Q 280 180 310 200" stroke="url(#gradient4)" stroke-width="2" fill="none"/>
  </g>

  <!-- Branch nodes -->
  <g id="branch-nodes">
    <!-- Top left -->
    <rect x="55" y="80" width="70" height="40" rx="6" fill="#2d4059" stroke="#13ADC7" stroke-width="2"/>
    <line x1="62" y1="92" x2="118" y2="92" stroke="#13ADC7" stroke-width="1" opacity="0.3"/>
    <line x1="62" y1="100" x2="105" y2="100" stroke="#13ADC7" stroke-width="1" opacity="0.3"/>
    <line x1="62" y1="108" x2="112" y2="108" stroke="#13ADC7" stroke-width="1" opacity="0.3"/>

    <!-- Top right -->
    <rect x="275" y="80" width="70" height="40" rx="6" fill="#2d4059" stroke="#6978D1" stroke-width="2"/>
    <line x1="282" y1="92" x2="338" y2="92" stroke="#6978D1" stroke-width="1" opacity="0.3"/>
    <line x1="282" y1="100" x2="325" y2="100" stroke="#6978D1" stroke-width="1" opacity="0.3"/>
    <line x1="282" y1="108" x2="332" y2="108" stroke="#6978D1" stroke-width="1" opacity="0.3"/>

    <!-- Bottom left -->
    <rect x="55" y="180" width="70" height="40" rx="6" fill="#2d4059" stroke="#945DD6" stroke-width="2"/>
    <line x1="62" y1="192" x2="118" y2="192" stroke="#945DD6" stroke-width="1" opacity="0.3"/>
    <line x1="62" y1="200" x2="105" y2="200" stroke="#945DD6" stroke-width="1" opacity="0.3"/>
    <line x1="62" y1="208" x2="112" y2="208" stroke="#945DD6" stroke-width="1" opacity="0.3"/>

    <!-- Bottom right -->
    <rect x="275" y="180" width="70" height="40" rx="6" fill="#2d4059" stroke="#00DBD8" stroke-width="2"/>
    <line x1="282" y1="192" x2="338" y2="192" stroke="#00DBD8" stroke-width="1" opacity="0.3"/>
    <line x1="282" y1="200" x2="325" y2="200" stroke="#00DBD8" stroke-width="1" opacity="0.3"/>
    <line x1="282" y1="208" x2="332" y2="208" stroke="#00DBD8" stroke-width="1" opacity="0.3"/>
  </g>

  <!-- AI indicator - subtle neural network pattern in center -->
  <g id="ai-indicator" opacity="0.5">
    <circle cx="200" cy="150" r="3" fill="#945DD6"/>
    <circle cx="193" cy="145" r="2" fill="#13ADC7"/>
    <circle cx="207" cy="145" r="2" fill="#13ADC7"/>
    <circle cx="193" cy="155" r="2" fill="#6978D1"/>
    <circle cx="207" cy="155" r="2" fill="#6978D1"/>
    <line x1="193" y1="145" x2="200" y2="150" stroke="#13ADC7" stroke-width="0.5"/>
    <line x1="207" y1="145" x2="200" y2="150" stroke="#13ADC7" stroke-width="0.5"/>
    <line x1="193" y1="155" x2="200" y2="150" stroke="#6978D1" stroke-width="0.5"/>
    <line x1="207" y1="155" x2="200" y2="150" stroke="#6978D1" stroke-width="0.5"/>
  </g>

  <!-- Gradients for connections -->
  <defs>
    <linearGradient id="gradient1" x1="160" y1="135" x2="90" y2="100">
      <stop offset="0%" stop-color="#00DBD8"/>
      <stop offset="100%" stop-color="#13ADC7"/>
    </linearGradient>
    <linearGradient id="gradient2" x1="240" y1="135" x2="310" y2="100">
      <stop offset="0%" stop-color="#00DBD8"/>
      <stop offset="100%" stop-color="#6978D1"/>
    </linearGradient>
    <linearGradient id="gradient3" x1="160" y1="165" x2="90" y2="200">
      <stop offset="0%" stop-color="#00DBD8"/>
      <stop offset="100%" stop-color="#945DD6"/>
    </linearGradient>
    <linearGradient id="gradient4" x1="240" y1="165" x2="310" y2="200">
      <stop offset="0%" stop-color="#00DBD8"/>
      <stop offset="100%" stop-color="#00DBD8"/>
    </linearGradient>
  </defs>
</svg>
