<svg width="400" height="300" viewBox="0 0 400 300" fill="none" xmlns="http://www.w3.org/2000/svg">
  <rect width="400" height="300" fill="#16213e"/>
  
  <!-- Document icon -->
  <rect x="60" y="60" width="100" height="140" rx="5" fill="#2d4059" stroke="#13ADC7" stroke-width="2"/>
  <rect x="75" y="80" width="70" height="5" rx="2.5" fill="#13ADC7" opacity="0.5"/>
  <rect x="75" y="95" width="50" height="5" rx="2.5" fill="#6978D1" opacity="0.5"/>
  <rect x="75" y="110" width="60" height="5" rx="2.5" fill="#945DD6" opacity="0.5"/>
  <rect x="75" y="125" width="40" height="5" rx="2.5" fill="#13ADC7" opacity="0.5"/>
  <rect x="75" y="140" width="65" height="5" rx="2.5" fill="#6978D1" opacity="0.5"/>
  
  <!-- AI processing arrow -->
  <path d="M180 130 L220 130" stroke="#00DBD8" stroke-width="3" marker-end="url(#arrowhead)"/>
  <defs>
    <marker id="arrowhead" markerWidth="10" markerHeight="7" refX="9" refY="3.5" orient="auto">
      <polygon points="0 0, 10 3.5, 0 7" fill="#00DBD8"/>
    </marker>
  </defs>
  
  <!-- AI brain icon -->
  <circle cx="200" cy="130" r="25" fill="#2d4059" stroke="#00DBD8" stroke-width="2"/>
  <path d="M185 130 Q190 120 195 130 T205 130 T215 130" stroke="#945DD6" stroke-width="2" fill="none"/>
  <path d="M185 135 Q190 125 195 135 T205 135 T215 135" stroke="#13ADC7" stroke-width="2" fill="none"/>
  <circle cx="190" cy="125" r="2" fill="#00DBD8"/>
  <circle cx="200" cy="130" r="2" fill="#945DD6"/>
  <circle cx="210" cy="125" r="2" fill="#00DBD8"/>
  
  <!-- Processed data -->
  <rect x="240" y="60" width="100" height="140" rx="5" fill="#2d4059" stroke="#00DBD8" stroke-width="2"/>
  <rect x="255" y="80" width="70" height="8" rx="4" fill="#00DBD8"/>
  <rect x="255" y="95" width="50" height="8" rx="4" fill="#00DBD8"/>
  <rect x="255" y="110" width="60" height="8" rx="4" fill="#00DBD8"/>
  <rect x="255" y="125" width="40" height="8" rx="4" fill="#00DBD8"/>
  
  <!-- Checkmarks -->
  <path d="M315 82 L318 85 L323 80" stroke="#16213e" stroke-width="2" stroke-linecap="round" stroke-linejoin="round"/>
  <path d="M315 97 L318 100 L323 95" stroke="#16213e" stroke-width="2" stroke-linecap="round" stroke-linejoin="round"/>
  
  <!-- Status indicators -->
  <circle cx="90" cy="230" r="5" fill="#00DBD8"/>
  <text x="100" y="235" fill="#13ADC7" font-family="Arial" font-size="12">Input</text>
  
  <circle cx="170" cy="230" r="5" fill="#945DD6"/>
  <text x="180" y="235" fill="#945DD6" font-family="Arial" font-size="12">Processing</text>
  
  <circle cx="270" cy="230" r="5" fill="#00DBD8"/>
  <text x="280" y="235" fill="#00DBD8" font-family="Arial" font-size="12">Complete</text>
</svg>